<?xml version="1.0" standalone="no"?>
<svg xmlns="http://www.w3.org/2000/svg" width="286.9326386575616" height="89.70607615756163" viewBox="0 0 286.9326386575616 89.70607615756163"><path fill="#00005f" fill-rule="nonzero" d="M0 26.46L0 0.35Q2.71 0 5.57 0L5.57 0Q10.88 0 13.64 2.49Q16.41 4.98 16.41 9.94L16.41 9.94Q16.41 14.38 13.38 16.95L13.38 16.95Q10.55 19.38 6.09 19.38L6.09 19.38Q5.59 19.38 4.98 19.32L4.98 19.32L4.98 26.46L0 26.46ZM6.15 4.71L6.15 4.71Q5.57 4.71 4.98 4.75L4.98 4.75L4.98 15.02Q5.61 15.10 6.50 15.10Q7.40 15.10 8.38 14.72Q9.36 14.34 10.02 13.65L10.02 13.65Q11.41 12.23 11.41 9.90L11.41 9.90Q11.41 4.71 6.15 4.71ZM24.14 20.84L22.30 26.62Q20.63 26.46 18.38 26.46L18.38 26.46L16.84 26.46L25.33 2.66Q25.90 1.05 25.90 0.79Q25.90 0.53 25.88 0.47L25.88 0.47L25.90 0.43Q27.17 0.49 28.59 0.49L28.59 0.49Q29.77 0.49 31.41 0.45L31.41 0.45L31.43 0.49Q31.39 0.57 31.39 0.70L31.39 0.70Q31.39 1.07 31.97 2.68L31.97 2.68L40.64 26.52Q40.25 26.50 39.73 26.50L39.73 26.50Q39.73 26.50 38.71 26.46L38.71 26.46Q38.22 26.46 37.83 26.46L37.83 26.46L34.80 26.46L32.97 20.84L24.14 20.84ZM25.63 16.15L31.45 16.15L28.50 7.07L25.63 16.15ZM59.47 1.93L59.47 1.93L59.10 7.68L58.96 7.71Q57.52 5.55 54.04 4.90L54.04 4.90Q52.95 4.69 51.94 4.69Q50.94 4.69 50.22 4.86Q49.51 5.04 49.00 5.37L49.00 5.37Q47.93 6.07 47.93 7.21L47.93 7.21Q47.93 8.69 48.87 9.43L48.87 9.43Q50.04 10.33 52.75 10.69Q55.47 11.05 57.11 11.68Q58.75 12.30 59.80 13.26L59.80 13.26Q61.80 15.06 61.80 18.34L61.80 18.34Q61.80 22.64 58.55 24.96L58.55 24.96Q55.78 26.95 51.56 26.95L51.56 26.95Q48.16 26.95 44.84 25.66L44.84 25.66Q43.75 25.23 42.93 24.67L42.93 24.67L43.14 18.14L43.22 18.09Q45.64 22.27 51.17 22.27L51.17 22.27Q55.10 22.27 56.37 20.37L56.37 20.37Q56.80 19.73 56.80 18.94Q56.80 18.14 56.54 17.63Q56.29 17.11 55.70 16.74L55.70 16.74Q54.57 16.00 51.89 15.74Q49.22 15.49 47.52 14.79Q45.82 14.08 44.80 13.05L44.80 13.05Q42.97 11.17 42.97 7.81L42.97 7.81Q42.97 4.34 45.41 2.19L45.41 2.19Q47.89 0 52.10 0Q56.31 0 59.47 1.93ZM76.46 4.86L76.46 26.58Q75.53 26.46 71.64 26.46L71.64 26.46L71.02 26.46L71.02 4.86L67.15 4.86Q65.43 4.86 65.12 5.04Q64.80 5.21 64.63 5.35L64.63 5.35L64.57 5.33L64.57 0.33L64.63 0.27Q65.27 0.49 68.11 0.49L68.11 0.49L80.35 0.49Q82.07 0.49 82.38 0.31Q82.70 0.14 82.87 0L82.87 0L82.93 0.02L82.93 5.02L82.87 5.08Q82.23 4.86 79.39 4.86L79.39 4.86L76.46 4.86ZM92.23 21.78L100.20 21.78Q101.41 21.78 101.88 21.54L101.88 21.54L101.95 21.56L101.76 26.46L87.13 26.46L87.13 0.35Q87.66 0.39 88.30 0.41L88.30 0.41L89.67 0.45Q91.04 0.49 92.64 0.49L92.64 0.49Q97.11 0.49 101.48 0.33L101.48 0.33Q101.27 2.05 101.27 4.92L101.27 4.92Q101.27 5.23 101.31 5.39L101.31 5.39L101.27 5.45Q100.25 5.16 98.38 5.16L98.38 5.16L92.23 5.16L92.23 10.14L96.86 10.14Q99.00 10.14 99.43 10.02L99.43 10.02L99.49 14.84Q98.55 14.75 97.07 14.75L97.07 14.75L92.23 14.75L92.23 21.78ZM112.83 26.46L110.98 26.46Q108.11 26.46 107.17 26.58L107.17 26.58L107.17 0.37Q107.64 0.49 109.11 0.49Q110.59 0.49 112.54 0.41L112.54 0.41L112.54 21.78L116.58 21.78Q118.34 21.78 119.39 21.66L119.39 21.66Q119.26 26.23 119.26 26.41L119.26 26.41L119.26 26.60Q117.34 26.46 112.83 26.46L112.83 26.46ZM124.47 26.46L124.47 0.41Q126.43 0.49 126.84 0.49L126.84 0.49L128.24 0.49Q129.28 0.49 129.90 0.33L129.90 0.33L129.88 26.46L124.47 26.46ZM146.60 4.86L146.60 26.58Q145.66 26.46 141.78 26.46L141.78 26.46L141.15 26.46L141.15 4.86L137.29 4.86Q135.57 4.86 135.25 5.04Q134.94 5.21 134.77 5.35L134.77 5.35L134.71 5.33L134.71 0.33L134.77 0.27Q135.41 0.49 138.24 0.49L138.24 0.49L150.49 0.49Q152.21 0.49 152.52 0.31Q152.83 0.14 153.01 0L153.01 0L153.07 0.02L153.07 5.02L153.01 5.08Q152.36 4.86 149.53 4.86L149.53 4.86L146.60 4.86ZM159.39 23.38Q157.62 21.68 156.59 19.30Q155.57 16.91 155.57 14.07Q155.57 11.23 156.52 8.69Q157.48 6.15 159.26 4.22Q161.04 2.29 163.55 1.14Q166.07 0 169.20 0L169.20 0Q174.59 0 178.28 3.40L178.28 3.40Q182.23 7.03 182.23 13.20L182.23 13.20Q182.23 19.18 178.16 23.14L178.16 23.14Q175.66 25.59 172.21 26.50L172.21 26.50Q170.51 26.95 168.23 26.95Q165.96 26.95 163.56 26.02Q161.17 25.08 159.39 23.38ZM161.00 13.81L161.00 13.81Q161.00 15.63 161.60 17.15Q162.21 18.67 163.28 19.77L163.28 19.77Q165.57 22.07 169.16 22.07L169.16 22.07Q172.58 22.07 174.65 19.86L174.65 19.86Q176.76 17.58 176.76 13.63L176.76 13.63Q176.76 9.92 174.75 7.44L174.75 7.44Q172.58 4.79 168.81 4.79L168.81 4.79Q165.16 4.79 163.01 7.48L163.01 7.48Q161.00 10 161.00 13.81Z" transform="translate(0 0) scale(1)"></path><path fill="#00005f" fill-rule="nonzero" d="M13.63 10.08L13.69 14.90Q12.75 14.80 11.27 14.80L11.27 14.80L5.35 14.80L5.35 26.13L0 26.13L0 0.02Q0.53 0.06 1.21 0.08L1.21 0.08L2.66 0.12Q4.14 0.16 5.74 0.16L5.74 0.16Q10.55 0.16 14.92 0L14.92 0Q14.71 1.72 14.71 4.59L14.71 4.59Q14.71 4.90 14.75 5.06L14.75 5.06L14.71 5.12Q13.67 4.82 11.82 4.82L11.82 4.82L5.35 4.82L5.35 10.20L11.05 10.20Q13.20 10.20 13.63 10.08L13.63 10.08ZM25.06 21.45L33.03 21.45Q34.24 21.45 34.71 21.21L34.71 21.21L34.79 21.23L34.59 26.13L19.96 26.13L19.96 0.02Q20.49 0.06 21.13 0.08L21.13 0.08L22.50 0.12Q23.87 0.16 25.47 0.16L25.47 0.16Q29.94 0.16 34.32 0L34.32 0Q34.10 1.72 34.10 4.59L34.10 4.59Q34.10 4.90 34.14 5.06L34.14 5.06L34.10 5.12Q33.09 4.82 31.21 4.82L31.21 4.82L25.06 4.82L25.06 9.80L29.69 9.80Q31.84 9.80 32.27 9.69L32.27 9.69L32.32 14.51Q31.39 14.41 29.90 14.41L29.90 14.41L25.06 14.41L25.06 21.45ZM45.66 26.13L43.81 26.13Q40.94 26.13 40 26.25L40 26.25L40 0.04Q40.47 0.16 41.94 0.16Q43.42 0.16 45.37 0.08L45.37 0.08L45.37 21.45L49.41 21.45Q51.17 21.45 52.23 21.33L52.23 21.33Q52.09 25.90 52.09 26.07L52.09 26.07L52.09 26.27Q50.18 26.13 45.66 26.13L45.66 26.13ZM57.30 26.13L57.30 0.08Q59.26 0.16 59.67 0.16L59.67 0.16L61.07 0.16Q62.11 0.16 62.73 0L62.73 0L62.71 26.13L57.30 26.13ZM69.49 2.50L69.49 1.91Q69.49 1.27 69.43 0.16L69.43 0.16L87.95 0.16L76.58 21.45L83.67 21.45Q86.45 21.45 86.94 21.28Q87.44 21.11 87.73 20.98L87.73 20.98L87.73 26.43Q86.89 26.35 86.35 26.29Q85.80 26.23 85.20 26.19L85.20 26.19Q84.28 26.13 81.64 26.13L81.64 26.13L68.50 26.13L80.25 4.84L74.10 4.84Q70.29 4.84 69.26 5.25L69.26 5.25Q69.49 4.28 69.49 2.50L69.49 2.50Z" transform="translate(0 34.954) scale(2.072)"></path><g fill="#ff6506" color="#ff6506" transform="translate(197.227 0) scale(0.8970608)"><svg width="100.0" height="100.0" x="0.0" y="0.0" viewBox="0 0 100 100"><ellipse fill="currentColor" cx="40.625" cy="60.312" rx="1.875" ry="2.812"></ellipse><ellipse fill="currentColor" cx="59.375" cy="60.312" rx="1.875" ry="2.812"></ellipse><path fill="currentColor" d="M59.375,65h-18.75c-0.586,0-1.137,0.274-1.492,0.74c-0.354,0.467-0.471,1.072-0.313,1.637  c0.079,0.285,2.049,6.998,11.181,6.998c9.133,0,11.102-6.713,11.182-6.998c0.156-0.564,0.041-1.17-0.315-1.637  C60.514,65.274,59.961,65,59.375,65z"></path><path fill="currentColor" d="M72.5,50.938h-0.938V38.75c0-3.618-2.944-6.562-6.562-6.562h-0.938V27.5c0-4.652-3.785-8.438-8.438-8.438  h-11.25c-4.653,0-8.438,3.785-8.438,8.438v4.688H35c-3.618,0-6.562,2.944-6.562,6.562v12.188H27.5c-2.585,0-4.688,2.102-4.688,4.688  V80c0,0.519,0.419,0.938,0.938,0.938h52.5c0.518,0,0.938-0.419,0.938-0.938V55.625C77.188,53.039,75.085,50.938,72.5,50.938z   M44.375,20.938h11.25c2.992,0,5.493,2.025,6.28,4.767c-0.487,0.353-0.924,0.739-1.32,1.135c-0.894,0.894-1.599,1.599-3.085,1.599  s-2.193-0.707-3.087-1.601c-0.958-0.957-2.15-2.149-4.413-2.149s-3.455,1.192-4.413,2.149c-0.894,0.894-1.6,1.601-3.087,1.601  s-2.192-0.705-3.085-1.601c-0.397-0.396-0.833-0.78-1.32-1.133C38.882,22.963,41.383,20.938,44.375,20.938z M37.812,27.901  c0.092,0.089,0.183,0.17,0.276,0.264c0.958,0.955,2.148,2.147,4.411,2.147s3.455-1.192,4.413-2.149  c0.894-0.894,1.6-1.601,3.087-1.601s2.193,0.707,3.087,1.601c0.958,0.957,2.15,2.149,4.413,2.149s3.453-1.19,4.411-2.147  c0.093-0.094,0.185-0.175,0.276-0.264v4.286H37.812V27.901z M35,34.062h30c2.585,0,4.688,2.102,4.688,4.688v3.651  c-0.621,0.397-1.153,0.864-1.602,1.311c-0.894,0.896-1.599,1.601-3.085,1.601s-2.193-0.707-3.087-1.601  c-0.958-0.957-2.15-2.149-4.413-2.149s-3.455,1.192-4.413,2.149c-0.894,0.894-1.6,1.601-3.087,1.601s-2.193-0.707-3.087-1.601  c-0.958-0.957-2.15-2.149-4.413-2.149s-3.455,1.192-4.413,2.149c-0.894,0.894-1.6,1.601-3.087,1.601  c-1.485,0-2.192-0.705-3.085-1.599c-0.449-0.448-0.981-0.913-1.602-1.314V38.75C30.312,36.164,32.415,34.062,35,34.062z   M30.312,44.777c0.092,0.09,0.183,0.169,0.276,0.263c0.958,0.957,2.15,2.147,4.411,2.147c2.263,0,3.455-1.192,4.413-2.149  c0.894-0.894,1.6-1.601,3.087-1.601s2.193,0.707,3.087,1.601c0.958,0.957,2.15,2.149,4.413,2.149s3.455-1.192,4.413-2.149  c0.894-0.894,1.6-1.601,3.087-1.601s2.193,0.707,3.087,1.601c0.958,0.957,2.15,2.149,4.413,2.149s3.453-1.192,4.411-2.147  c0.093-0.094,0.185-0.173,0.276-0.263v6.16H30.312V44.777z M75.312,79.062H24.688V55.625c0-1.551,1.262-2.812,2.812-2.812h45  c1.551,0,2.812,1.262,2.812,2.812V79.062z"></path></svg></g></svg>